<svg width="10" height="13" viewBox="0 0 10 13" fill="none" xmlns="http://www.w3.org/2000/svg">
<path fill-rule="evenodd" clip-rule="evenodd" d="M5.58926 12.0889C5.26382 12.4144 4.73618 12.4144 4.41074 12.0889L0.244078 7.92226C-0.0813585 7.59683 -0.0813584 7.06919 0.244078 6.74375C0.569515 6.41831 1.09715 6.41831 1.42259 6.74375L5 10.3212L8.57741 6.74375C8.90285 6.41831 9.43049 6.41831 9.75592 6.74375C10.0814 7.06919 10.0814 7.59683 9.75592 7.92226L5.58926 12.0889Z" fill="#3056D3"/>
<path fill-rule="evenodd" clip-rule="evenodd" d="M4.99967 12.333C4.53944 12.333 4.16634 11.9599 4.16634 11.4997L4.16634 1.49967C4.16634 1.03944 4.53944 0.66634 4.99968 0.66634C5.45991 0.66634 5.83301 1.03944 5.83301 1.49967L5.83301 11.4997C5.83301 11.9599 5.45991 12.333 4.99967 12.333Z" fill="#3056D3"/>
</svg>
