<svg width="3946" height="779" viewBox="0 0 3946 779" fill="none" xmlns="http://www.w3.org/2000/svg">
<path fill-rule="evenodd" clip-rule="evenodd" d="M3945.02 736.741C3906.18 778.289 3789.46 779.534 3525.09 768.709C3411.12 580.375 3125.14 534.507 2959.22 666.723C2847.51 755.744 2775.66 692.778 2993.62 535.55C2213.25 555.61 1785.06 577.618 1032.8 630.064C1060.25 777.221 1008.82 818.224 901.105 713.98C749.083 554.314 501.331 556.399 341.143 703.73C215.732 723.983 137.868 738.825 28.2385 778.959C26.6243 776.437 25.0833 774.087 23.609 771.838C13.6206 756.603 6.68954 746.031 0.743164 718.464C26.6532 689.257 101.574 638.521 234.119 594.804C323.074 545.099 586.984 447.254 940.022 447.254C1536.92 7.18882 2351.35 -138.515 3287.07 147.983C3350.14 167.294 3417.15 192.385 3485.08 217.82C3628.63 271.567 3776.28 326.85 3899.5 332.377C3860.61 392.191 3864.08 426.04 3893.42 486.705V510.688C3868.9 509.826 3857.94 516.076 3862.14 543.535C3882.6 677.054 3904.14 697.023 3939 729.34C3940.93 731.125 3942.9 732.947 3944.9 734.828L3945.02 736.741Z" fill="#EDBF54"/>
</svg>
