<svg width="845" height="845" viewBox="0 0 845 845" fill="none" xmlns="http://www.w3.org/2000/svg">
<path fill-rule="evenodd" clip-rule="evenodd" d="M422.223 724.596C588.893 724.596 724.005 589.483 724.005 422.813C724.005 256.143 588.893 121.03 422.223 121.03C255.552 121.03 120.44 256.143 120.44 422.813C120.44 589.483 255.552 724.596 422.223 724.596ZM422.223 640.227C542.297 640.227 639.636 542.887 639.636 422.813C639.636 302.739 542.297 205.4 422.223 205.4C302.148 205.4 204.809 302.739 204.809 422.813C204.809 542.887 302.148 640.227 422.223 640.227Z" fill="#3F3F3F"/>
<path fill-rule="evenodd" clip-rule="evenodd" d="M634.416 433.276C627.261 546.317 533.311 635.786 418.465 635.786C351.615 635.786 291.844 605.472 252.151 557.839C288.276 617.655 353.909 657.647 428.883 657.647C542.826 657.647 635.196 565.278 635.196 451.335C635.196 445.25 634.932 439.227 634.416 433.276Z" fill="#707070"/>
<mask id="mask0_404_1902" style="mask-type:alpha" maskUnits="userSpaceOnUse" x="120" y="121" width="605" height="604">
<path fill-rule="evenodd" clip-rule="evenodd" d="M422.223 724.596C588.893 724.596 724.005 589.483 724.005 422.813C724.005 256.143 588.893 121.03 422.223 121.03C255.552 121.03 120.44 256.143 120.44 422.813C120.44 589.483 255.552 724.596 422.223 724.596ZM422.223 640.227C542.297 640.227 639.636 542.887 639.636 422.813C639.636 302.739 542.297 205.4 422.223 205.4C302.148 205.4 204.809 302.739 204.809 422.813C204.809 542.887 302.148 640.227 422.223 640.227Z" fill="#3F3F3F"/>
</mask>
<g mask="url(#mask0_404_1902)">
<ellipse cx="422.393" cy="220.941" rx="310.151" ry="182.573" fill="#303030"/>
</g>
<circle cx="422.223" cy="422.813" r="136.898" fill="#A7A7A7" stroke="black" stroke-width="8.68697"/>
<circle cx="422.223" cy="422.813" r="29.5464" stroke="black" stroke-width="5.21218"/>
<path d="M627.484 420.619C574.539 402.891 502.212 399.523 447.298 407.693" stroke="black" stroke-width="8.68697"/>
<path d="M615.723 489.986C607.314 487.869 593.147 475.772 590.792 472.945C592.515 459.456 604.239 437.509 627.748 421.431" stroke="black" stroke-width="8.68697"/>
<path d="M590.685 472.64C544.277 496.363 526.316 464.02 449.88 452.117C473.343 440.051 535.797 422.976 597.913 451.202" stroke="black" stroke-width="8.68697" stroke-linejoin="round"/>
<path d="M487.747 617.378C488.245 561.546 469.099 491.718 444.359 442.016" stroke="black" stroke-width="8.68697"/>
<path d="M418.14 627.628C417.554 618.977 424.682 601.765 426.642 598.652C440.004 596.122 464.5 600.491 487.056 617.88" stroke="black" stroke-width="8.68697"/>
<path d="M426.9 598.455C389.997 561.65 415.207 534.573 402.907 458.2C421.633 476.786 457.172 530.907 449.523 598.705" stroke="black" stroke-width="8.68697" stroke-linejoin="round"/>
<path d="M257.437 545.282C310.69 528.503 371.183 488.716 410.808 449.828" stroke="black" stroke-width="8.68697"/>
<path d="M226.178 482.25C234.226 479.019 252.797 480.479 256.364 481.381C262.899 493.307 266.314 517.954 256.746 544.78" stroke="black" stroke-width="8.68697"/>
<path d="M256.63 481.566C280.231 435.095 313.772 450.704 382.607 415.406C370.717 438.958 330.227 489.482 263.383 503.158" stroke="black" stroke-width="8.68697" stroke-linejoin="round"/>
<path d="M254.834 303.965C287.247 349.426 343.781 394.665 393.01 420.333" stroke="black" stroke-width="8.68697"/>
<path d="M305.122 254.759C310.681 261.414 315.031 279.528 315.275 283.199C305.953 293.099 283.567 303.963 255.098 303.153" stroke="black" stroke-width="8.68697"/>
<path d="M315.182 283.509C366.671 291.594 362.191 328.317 417.033 382.875C390.959 378.845 330.396 355.949 296.733 296.604" stroke="black" stroke-width="8.68697" stroke-linejoin="round"/>
<path d="M483.536 226.919C450.316 271.794 424.761 339.54 415.562 394.291" stroke="black" stroke-width="8.68697"/>
<path d="M545.873 259.54C541.262 266.883 525.379 276.618 521.963 277.985C509.666 272.178 492.417 254.245 484.39 226.919" stroke="black" stroke-width="8.68697"/>
<path d="M521.64 277.992C529.861 329.46 493.55 336.547 458.61 405.564C454.385 379.521 457.445 314.846 503.484 264.493" stroke="black" stroke-width="8.68697" stroke-linejoin="round"/>
<path fill-rule="evenodd" clip-rule="evenodd" d="M625.041 417.125C623.313 354.347 593.069 298.692 546.797 262.651C543.914 266.289 539.23 270.064 534.95 273.094C530.957 275.923 526.95 278.354 524.476 279.629C526.194 291.866 525.397 301.765 522.619 310.694C519.7 320.078 514.644 328.216 508.372 336.718C505.504 340.605 502.377 344.579 499.052 348.804C488.31 362.454 475.505 378.725 462.721 403.173C514.312 397.814 576.994 401.783 625.041 417.125Z" fill="#5A5A5A"/>
<path fill-rule="evenodd" clip-rule="evenodd" d="M479.487 228.164C419.247 210.408 356.971 221.974 308.395 254.843C310.965 258.709 313.107 264.331 314.666 269.337C316.122 274.009 317.197 278.572 317.644 281.318C329.814 283.466 338.982 287.283 346.615 292.684C354.638 298.36 360.815 305.684 366.963 314.276C369.774 318.205 372.587 322.407 375.578 326.875C385.24 341.309 396.757 358.514 416.058 378.228C426.904 327.506 450.049 269.118 479.487 228.164Z" fill="#5A5A5A"/>
<path fill-rule="evenodd" clip-rule="evenodd" d="M254.796 308.202C219.294 360.006 211.049 422.808 227.299 479.165C231.77 477.915 237.778 477.615 243.021 477.679C247.915 477.738 252.586 478.126 255.337 478.549C261.139 467.639 267.603 460.099 275.098 454.508C282.976 448.632 291.85 445.02 301.921 441.829C306.526 440.369 311.392 438.992 316.565 437.529C333.279 432.8 353.201 427.163 377.914 414.898C333.026 388.909 284.649 348.854 254.796 308.202Z" fill="#5A5A5A"/>
<path fill-rule="evenodd" clip-rule="evenodd" d="M261.483 546.629C299.781 596.402 356.962 623.65 415.582 625.61C415.775 620.972 417.346 615.165 419.027 610.198C420.595 605.563 422.408 601.24 423.66 598.755C415.077 589.864 409.903 581.388 406.903 572.532C403.749 563.224 403.055 553.668 403.132 543.103C403.167 538.272 403.362 533.219 403.568 527.847C404.236 510.49 405.031 489.801 401.003 462.507C362.415 497.167 309.371 530.799 261.483 546.629Z" fill="#5A5A5A"/>
<path fill-rule="evenodd" clip-rule="evenodd" d="M490.308 613.947C549.479 592.904 593.063 546.942 613.042 491.797C608.691 490.18 603.654 486.892 599.449 483.758C595.525 480.834 591.974 477.774 589.997 475.815C578.89 481.231 569.229 483.532 559.879 483.649C550.052 483.772 540.75 481.479 530.726 478.141C526.143 476.615 521.397 474.869 516.351 473.012C500.05 467.014 480.619 459.864 453.417 455.26C474.456 502.671 490.051 563.511 490.308 613.947Z" fill="#5A5A5A"/>
<path fill-rule="evenodd" clip-rule="evenodd" d="M479.399 228.048C419.16 210.292 356.883 221.858 308.307 254.727C309.007 255.78 309.675 256.963 310.308 258.228C357.065 250.03 426.576 270.183 443.624 292.568C453.861 269.023 465.976 246.723 479.399 228.048Z" fill="#666666"/>
<path fill-rule="evenodd" clip-rule="evenodd" d="M254.422 307.925C218.92 359.729 210.676 422.531 226.926 478.888C228.143 478.547 229.474 478.278 230.873 478.066C237.525 431.065 278.172 371.184 304.729 361.887C285.5 344.875 268.035 326.462 254.422 307.925Z" fill="#666666"/>
<path fill-rule="evenodd" clip-rule="evenodd" d="M260.868 546.574C299.166 596.346 356.346 623.594 414.966 625.555C415.019 624.292 415.173 622.942 415.405 621.546C372.759 600.696 328.369 543.534 327.734 515.404C305.613 528.435 282.704 539.355 260.868 546.574Z" fill="#666666"/>
<path fill-rule="evenodd" clip-rule="evenodd" d="M489.828 614.19C549 593.147 592.584 547.185 612.563 492.04C611.378 491.6 610.142 491.035 608.886 490.384C575.878 524.499 507.797 549.053 480.847 540.964C486.405 566.029 489.711 591.191 489.828 614.19Z" fill="#666666"/>
<path fill-rule="evenodd" clip-rule="evenodd" d="M624.888 417.331C623.16 354.552 592.916 298.898 546.644 262.856C545.859 263.847 544.94 264.848 543.933 265.842C566.178 307.776 568.491 380.113 552.471 403.244C578.027 405.704 602.979 410.335 624.888 417.331Z" fill="#666666"/>
<path fill-rule="evenodd" clip-rule="evenodd" d="M455.779 403.958C451.971 376.37 455.973 313.346 500.804 263.634C493.957 255.396 487.578 244.641 483.216 231.714C452.198 275.122 428.184 338.484 418.754 390.89C419.893 390.768 421.051 390.705 422.223 390.705C433.312 390.705 443.089 396.327 448.858 404.876C451.137 404.551 453.445 404.245 455.779 403.958ZM522 275.143C511.246 269.549 496.454 254.227 488.367 230.943C508.026 237.718 526.316 247.43 542.716 259.554C540.378 262.479 536.275 265.878 531.989 268.913C527.89 271.816 524.01 274.119 522 275.143Z" fill="#343434"/>
<path fill-rule="evenodd" clip-rule="evenodd" d="M455.779 403.958C451.971 376.37 455.973 313.346 500.804 263.634C493.957 255.396 487.578 244.641 483.216 231.714C465.895 255.955 430.079 335.711 455.779 403.958ZM522 275.143C511.246 269.549 496.454 254.227 488.368 230.943C508.026 237.718 526.317 247.43 542.716 259.554C540.378 262.479 536.275 265.878 531.989 268.913C527.89 271.816 524.01 274.119 522 275.143Z" fill="#232323"/>
<path fill-rule="evenodd" clip-rule="evenodd" d="M414.66 385.072C387.245 380.169 328.542 356.887 295.117 298.889C285.166 302.855 272.967 305.599 259.324 305.752C291.023 348.666 343.863 391.084 390.79 416.247C391.026 415.126 391.323 414.006 391.686 412.891C395.112 402.344 403.481 394.783 413.394 391.939C413.789 389.671 414.211 387.381 414.66 385.072ZM312.613 282.287C303.969 290.786 284.827 300.119 260.183 300.614C272.701 284.012 287.59 269.618 304.188 257.767C306.247 260.895 308.212 265.847 309.774 270.861C311.269 275.657 312.26 280.058 312.613 282.287Z" fill="#343434"/>
<path fill-rule="evenodd" clip-rule="evenodd" d="M414.66 385.072C387.245 380.169 328.542 356.887 295.117 298.889C285.166 302.855 272.967 305.599 259.324 305.752C277.026 329.716 341.811 388.425 414.66 385.072ZM312.613 282.287C303.969 290.786 284.827 300.119 260.183 300.614C272.701 284.012 287.59 269.618 304.188 257.767C306.248 260.895 308.212 265.847 309.774 270.861C311.269 275.657 312.26 280.058 312.613 282.287Z" fill="#232323"/>
<path fill-rule="evenodd" clip-rule="evenodd" d="M383.992 418.343C370.857 442.901 330.574 491.536 265.086 505.403C265.783 516.092 264.623 528.542 260.552 541.565C311.161 524.678 367.832 487.532 406.265 450.678C405.271 450.108 404.298 449.478 403.35 448.789C394.378 442.271 389.773 431.976 390.132 421.669C388.096 420.592 386.049 419.483 383.992 418.343ZM254.703 483.633C260.115 494.48 263.076 515.57 255.932 539.161C244.01 522.124 234.921 503.516 228.78 484.069C232.391 483.076 237.708 482.738 242.959 482.802C247.982 482.863 252.475 483.28 254.703 483.633Z" fill="#343434"/>
<path fill-rule="evenodd" clip-rule="evenodd" d="M383.992 418.343C370.857 442.901 330.574 491.536 265.086 505.403C265.783 516.092 264.623 528.543 260.552 541.565C288.814 532.135 364.67 488.662 383.992 418.343ZM254.703 483.634C260.115 494.48 263.076 515.57 255.932 539.161C244.01 522.124 234.921 503.516 228.78 484.069C232.391 483.077 237.708 482.738 242.959 482.802C247.982 482.863 252.475 483.28 254.703 483.634Z" fill="#232323"/>
<path fill-rule="evenodd" clip-rule="evenodd" d="M406.157 457.791C425.455 477.872 459.261 531.212 452.213 597.781C462.594 600.421 474.076 605.372 485.203 613.267C484.782 559.917 466.967 494.541 443.793 446.601C442.943 447.37 442.044 448.101 441.096 448.789C432.124 455.308 420.91 456.506 411.217 452.98C409.565 454.583 407.877 456.187 406.157 457.791ZM428.3 600.928C440.288 599.133 461.26 602.834 481.489 616.919C461.603 622.992 441.097 625.886 420.703 625.717C420.875 621.976 422.196 616.815 423.88 611.84C425.49 607.082 427.275 602.938 428.3 600.928Z" fill="#343434"/>
<path fill-rule="evenodd" clip-rule="evenodd" d="M406.157 457.791C425.455 477.872 459.261 531.213 452.213 597.781C462.594 600.421 474.076 605.372 485.203 613.267C484.968 583.474 467.064 497.898 406.157 457.791ZM428.3 600.928C440.288 599.133 461.26 602.834 481.489 616.919C461.603 622.992 441.097 625.886 420.703 625.717C420.875 621.976 422.196 616.815 423.88 611.841C425.49 607.082 427.275 602.938 428.3 600.928Z" fill="#232323"/>
<path fill-rule="evenodd" clip-rule="evenodd" d="M450.525 448.901C475.586 436.753 536.762 421.085 597.894 448.359C603.613 439.302 611.87 429.912 622.817 421.769C571.948 405.683 504.267 402.424 451.512 409.65C451.98 410.696 452.398 411.777 452.76 412.891C456.187 423.438 453.861 434.474 447.512 442.602C448.526 444.669 449.531 446.77 450.525 448.901ZM593.498 472.074C595.495 460.118 605.496 441.316 625.143 426.43C624.773 447.219 621.189 467.616 614.727 486.959C611.222 485.64 606.722 482.788 602.511 479.65C598.483 476.648 595.093 473.67 593.498 472.074Z" fill="#343434"/>
<path fill-rule="evenodd" clip-rule="evenodd" d="M450.524 448.901C475.586 436.753 536.762 421.085 597.894 448.359C603.613 439.302 611.87 429.911 622.817 421.769C594.41 412.786 507.489 403.369 450.524 448.901ZM593.498 472.074C595.495 460.118 605.496 441.316 625.142 426.429C624.773 447.219 621.189 467.616 614.726 486.959C611.222 485.639 606.722 482.788 602.511 479.65C598.483 476.648 595.093 473.67 593.498 472.074Z" fill="#232323"/>
<ellipse cx="422.223" cy="422.813" rx="205.458" ry="205.458" stroke="black" stroke-width="8.68697"/>
<circle cx="422.223" cy="422.813" r="216.389" stroke="black" stroke-width="8.68697"/>
<circle cx="422.223" cy="422.813" r="210.923" stroke="#A6A6A6" stroke-width="5.90714"/>
<mask id="path-45-outside-1_404_1902" maskUnits="userSpaceOnUse" x="403.706" y="406.004" width="37" height="37" fill="black">
<rect fill="white" x="403.706" y="406.004" width="37" height="37"/>
<path fill-rule="evenodd" clip-rule="evenodd" d="M436.396 414.587C431.474 412.442 426.665 411.76 422.464 411.792H422.464C418.263 411.76 413.453 412.442 408.532 414.587C407.946 413.525 407.706 412.88 407.706 412.88C413.086 410.751 418.125 410.022 422.464 410.004C426.803 410.022 431.842 410.751 437.223 412.88C437.223 412.88 437.054 413.403 436.396 414.587ZM426.595 416.171L422.466 439.396L418.303 416.168C414.394 416.171 413.153 416.602 412.973 418.364C412.973 418.364 410.332 417.38 409.001 415.38C414.197 412.972 419.419 412.863 419.419 412.863L422.463 416.571L425.506 412.864C425.506 412.864 430.728 412.972 435.925 415.381C434.593 417.38 431.952 418.365 431.952 418.365C431.773 416.603 430.532 416.171 426.595 416.171Z"/>
</mask>
<path fill-rule="evenodd" clip-rule="evenodd" d="M436.396 414.587C431.474 412.442 426.665 411.76 422.464 411.792H422.464C418.263 411.76 413.453 412.442 408.532 414.587C407.946 413.525 407.706 412.88 407.706 412.88C413.086 410.751 418.125 410.022 422.464 410.004C426.803 410.022 431.842 410.751 437.223 412.88C437.223 412.88 437.054 413.403 436.396 414.587ZM426.595 416.171L422.466 439.396L418.303 416.168C414.394 416.171 413.153 416.602 412.973 418.364C412.973 418.364 410.332 417.38 409.001 415.38C414.197 412.972 419.419 412.863 419.419 412.863L422.463 416.571L425.506 412.864C425.506 412.864 430.728 412.972 435.925 415.381C434.593 417.38 431.952 418.365 431.952 418.365C431.773 416.603 430.532 416.171 426.595 416.171Z" fill="#EBEBEB"/>
<path d="M422.464 411.792V415.267C422.473 415.267 422.482 415.267 422.491 415.267L422.464 411.792ZM436.396 414.587L435.008 417.773C436.649 418.488 438.564 417.84 439.434 416.275L436.396 414.587ZM422.464 411.792L422.437 415.267C422.446 415.267 422.455 415.267 422.464 415.267L422.464 411.792ZM408.532 414.587L405.49 416.266C406.356 417.837 408.276 418.49 409.921 417.773L408.532 414.587ZM407.706 412.88L406.427 409.649C404.668 410.345 403.789 412.32 404.449 414.092L407.706 412.88ZM422.464 410.004L422.478 406.529C422.469 406.529 422.459 406.529 422.449 406.529L422.464 410.004ZM437.223 412.88L440.53 413.948C441.093 412.205 440.206 410.323 438.502 409.649L437.223 412.88ZM422.466 439.396L419.046 440.009C419.343 441.666 420.785 442.872 422.468 442.871C424.152 442.869 425.592 441.662 425.887 440.004L422.466 439.396ZM426.595 416.171V412.697C424.911 412.697 423.469 413.905 423.174 415.563L426.595 416.171ZM418.303 416.168L421.724 415.555C421.427 413.898 419.984 412.692 418.301 412.693L418.303 416.168ZM412.973 418.364L411.76 421.62C412.768 421.996 413.893 421.883 414.807 421.316C415.721 420.748 416.32 419.788 416.43 418.718L412.973 418.364ZM409.001 415.38L407.54 412.227C406.62 412.654 405.932 413.461 405.657 414.437C405.381 415.413 405.546 416.461 406.108 417.305L409.001 415.38ZM419.419 412.863L422.105 410.658C421.429 409.835 420.412 409.367 419.347 409.389L419.419 412.863ZM422.463 416.571L419.777 418.775C420.437 419.579 421.423 420.045 422.463 420.045C423.503 420.045 424.488 419.579 425.148 418.776L422.463 416.571ZM425.506 412.864L425.578 409.39C424.513 409.368 423.497 409.835 422.82 410.659L425.506 412.864ZM435.925 415.381L438.817 417.307C439.379 416.462 439.544 415.415 439.269 414.438C438.994 413.462 438.306 412.654 437.386 412.228L435.925 415.381ZM431.952 418.365L428.495 418.716C428.604 419.787 429.204 420.747 430.118 421.316C431.032 421.884 432.158 421.997 433.166 421.621L431.952 418.365ZM422.491 415.267C426.295 415.238 430.607 415.855 435.008 417.773L437.785 411.402C432.34 409.029 427.035 408.282 422.438 408.317L422.491 415.267ZM422.464 415.267H422.464V408.317H422.464V415.267ZM409.921 417.773C414.32 415.855 418.633 415.238 422.437 415.267L422.49 408.317C417.893 408.282 412.587 409.029 407.143 411.402L409.921 417.773ZM407.706 412.88C404.449 414.092 404.449 414.093 404.449 414.093C404.45 414.093 404.45 414.094 404.45 414.094C404.45 414.095 404.45 414.095 404.45 414.096C404.451 414.097 404.451 414.098 404.452 414.099C404.453 414.102 404.454 414.105 404.455 414.107C404.457 414.113 404.459 414.119 404.462 414.126C404.467 414.14 404.474 414.157 404.481 414.176C404.496 414.213 404.515 414.261 404.538 414.318C404.585 414.432 404.65 414.584 404.734 414.77C404.903 415.142 405.15 415.65 405.49 416.266L411.574 412.909C411.328 412.462 411.162 412.117 411.064 411.9C411.015 411.792 410.983 411.716 410.966 411.676C410.958 411.656 410.954 411.645 410.953 411.644C410.953 411.643 410.953 411.644 410.955 411.648C410.956 411.65 410.956 411.653 410.958 411.656C410.958 411.658 410.959 411.659 410.96 411.661C410.96 411.662 410.96 411.663 410.961 411.664C410.961 411.665 410.961 411.665 410.961 411.666C410.961 411.666 410.962 411.666 410.962 411.667C410.962 411.667 410.962 411.667 407.706 412.88ZM422.449 406.529C417.728 406.549 412.254 407.343 406.427 409.649L408.984 416.111C413.917 414.159 418.522 413.496 422.478 413.479L422.449 406.529ZM438.502 409.649C432.674 407.343 427.2 406.549 422.478 406.529L422.449 413.479C426.406 413.496 431.011 414.159 435.945 416.111L438.502 409.649ZM439.434 416.275C439.806 415.604 440.059 415.087 440.229 414.706C440.314 414.516 440.379 414.359 440.427 414.234C440.452 414.171 440.472 414.116 440.489 414.069C440.497 414.045 440.505 414.023 440.512 414.003C440.515 413.993 440.518 413.983 440.521 413.974C440.523 413.97 440.524 413.965 440.526 413.961C440.526 413.959 440.527 413.957 440.528 413.955C440.528 413.954 440.528 413.953 440.529 413.952C440.529 413.951 440.529 413.95 440.529 413.95C440.529 413.949 440.53 413.948 437.223 412.88C433.917 411.811 433.917 411.811 433.917 411.81C433.917 411.81 433.918 411.809 433.918 411.808C433.918 411.807 433.918 411.806 433.919 411.805C433.919 411.803 433.92 411.801 433.921 411.799C433.922 411.796 433.923 411.792 433.924 411.788C433.927 411.781 433.929 411.775 433.931 411.769C433.935 411.757 433.938 411.748 433.941 411.741C433.946 411.727 433.948 411.722 433.946 411.727C433.942 411.736 433.923 411.784 433.884 411.873C433.804 412.05 433.644 412.387 433.359 412.9L439.434 416.275ZM425.887 440.004L430.017 416.78L423.174 415.563L419.045 438.787L425.887 440.004ZM414.883 416.781L419.046 440.009L425.886 438.783L421.724 415.555L414.883 416.781ZM416.43 418.718C416.437 418.651 416.421 418.926 416.175 419.277C415.908 419.656 415.598 419.806 415.53 419.833C415.515 419.839 415.682 419.774 416.2 419.721C416.699 419.67 417.375 419.643 418.306 419.643L418.301 412.693C416.419 412.694 414.479 412.768 412.949 413.38C412.06 413.736 411.162 414.324 410.49 415.279C409.838 416.207 409.6 417.196 409.516 418.01L416.43 418.718ZM406.108 417.305C407.181 418.917 408.667 419.983 409.698 420.602C410.241 420.927 410.728 421.171 411.087 421.336C411.268 421.419 411.419 421.484 411.534 421.531C411.591 421.554 411.639 421.574 411.677 421.588C411.696 421.596 411.712 421.602 411.726 421.608C411.733 421.61 411.739 421.613 411.745 421.615C411.748 421.616 411.75 421.617 411.753 421.618C411.754 421.618 411.755 421.619 411.756 421.619C411.757 421.619 411.758 421.619 411.758 421.62C411.759 421.62 411.76 421.62 412.973 418.364C414.187 415.108 414.188 415.109 414.188 415.109C414.189 415.109 414.189 415.109 414.19 415.109C414.191 415.11 414.192 415.11 414.193 415.11C414.194 415.111 414.196 415.112 414.198 415.112C414.201 415.113 414.203 415.114 414.205 415.115C414.209 415.117 414.21 415.117 414.21 415.117C414.208 415.116 414.198 415.112 414.181 415.105C414.145 415.091 414.08 415.063 413.992 415.023C413.814 414.941 413.558 414.813 413.274 414.642C412.652 414.269 412.152 413.843 411.894 413.455L406.108 417.305ZM419.419 412.863C419.347 409.389 419.346 409.389 419.345 409.389C419.345 409.389 419.344 409.389 419.343 409.389C419.342 409.389 419.341 409.389 419.34 409.389C419.337 409.389 419.334 409.39 419.331 409.39C419.324 409.39 419.316 409.39 419.307 409.39C419.289 409.391 419.266 409.391 419.237 409.392C419.181 409.394 419.105 409.397 419.01 409.402C418.821 409.412 418.558 409.428 418.232 409.455C417.58 409.51 416.669 409.61 415.583 409.792C413.43 410.153 410.504 410.854 407.54 412.227L410.462 418.533C412.694 417.499 414.977 416.94 416.734 416.645C417.604 416.499 418.323 416.422 418.812 416.381C419.056 416.36 419.242 416.349 419.359 416.343C419.417 416.34 419.458 416.339 419.481 416.338C419.492 416.337 419.499 416.337 419.501 416.337C419.501 416.337 419.501 416.337 419.5 416.337C419.499 416.337 419.498 416.337 419.496 416.337C419.496 416.337 419.495 416.337 419.494 416.337C419.494 416.337 419.493 416.337 419.493 416.337C419.492 416.337 419.491 416.337 419.419 412.863ZM425.148 414.366L422.105 410.658L416.733 415.068L419.777 418.775L425.148 414.366ZM422.82 410.659L419.777 414.366L425.148 418.776L428.192 415.069L422.82 410.659ZM437.386 412.228C434.421 410.854 431.495 410.154 429.342 409.792C428.257 409.61 427.345 409.51 426.693 409.456C426.367 409.428 426.104 409.412 425.915 409.403C425.82 409.398 425.744 409.395 425.688 409.393C425.659 409.392 425.636 409.391 425.618 409.391C425.609 409.391 425.601 409.39 425.594 409.39C425.591 409.39 425.588 409.39 425.585 409.39C425.584 409.39 425.583 409.39 425.582 409.39C425.581 409.39 425.58 409.39 425.58 409.39C425.579 409.39 425.578 409.39 425.506 412.864C425.434 416.338 425.433 416.338 425.432 416.338C425.432 416.338 425.431 416.338 425.431 416.338C425.43 416.338 425.429 416.338 425.429 416.338C425.427 416.338 425.426 416.338 425.426 416.338C425.424 416.338 425.424 416.338 425.425 416.338C425.426 416.338 425.433 416.338 425.444 416.338C425.467 416.339 425.508 416.341 425.566 416.344C425.683 416.35 425.869 416.361 426.113 416.381C426.603 416.422 427.321 416.5 428.191 416.646C429.948 416.941 432.232 417.499 434.464 418.533L437.386 412.228ZM431.952 418.365C433.166 421.621 433.167 421.62 433.168 421.62C433.168 421.62 433.169 421.619 433.17 421.619C433.171 421.619 433.172 421.618 433.173 421.618C433.176 421.617 433.178 421.616 433.181 421.615C433.187 421.613 433.193 421.61 433.2 421.608C433.214 421.603 433.23 421.596 433.249 421.589C433.287 421.574 433.335 421.555 433.392 421.531C433.507 421.484 433.658 421.419 433.839 421.336C434.198 421.171 434.685 420.928 435.227 420.602C436.258 419.983 437.744 418.917 438.817 417.307L433.033 413.454C432.774 413.843 432.273 414.27 431.651 414.643C431.367 414.814 431.111 414.941 430.933 415.023C430.845 415.064 430.78 415.091 430.744 415.106C430.727 415.113 430.717 415.117 430.716 415.118C430.715 415.118 430.716 415.117 430.72 415.116C430.722 415.115 430.724 415.114 430.727 415.113C430.729 415.112 430.731 415.112 430.733 415.111C430.733 415.111 430.734 415.11 430.735 415.11C430.736 415.11 430.737 415.11 430.737 415.109C430.738 415.109 430.738 415.109 431.952 418.365ZM426.595 419.646C427.533 419.646 428.215 419.673 428.718 419.723C429.241 419.776 429.411 419.841 429.398 419.836C429.333 419.81 429.022 419.662 428.753 419.28C428.504 418.927 428.489 418.65 428.495 418.716L435.409 418.013C435.326 417.198 435.088 416.206 434.434 415.277C433.759 414.32 432.857 413.733 431.967 413.379C430.436 412.769 428.49 412.697 426.595 412.697V419.646Z" fill="black" mask="url(#path-45-outside-1_404_1902)"/>
<path d="M522.979 142.009C517.717 143.172 510.952 146.601 508.227 148.17" stroke="black" stroke-width="8.68697" stroke-linecap="round"/>
<path d="M565.666 161.228C560.286 161.554 553.069 163.882 550.132 165.005" stroke="black" stroke-width="8.68697" stroke-linecap="round"/>
<path d="M604.821 186.888C599.456 186.368 591.963 187.539 588.887 188.189" stroke="black" stroke-width="8.68697" stroke-linecap="round"/>
<path d="M639.48 218.358C634.263 217.005 626.679 216.989 623.539 217.15" stroke="black" stroke-width="8.68697" stroke-linecap="round"/>
<path d="M668.789 254.861C663.848 252.709 656.36 251.507 653.233 251.175" stroke="black" stroke-width="8.68697" stroke-linecap="round"/>
<path d="M692.027 295.5C687.483 292.602 680.275 290.243 677.239 289.426" stroke="black" stroke-width="8.68697" stroke-linecap="round"/>
<path d="M708.621 339.274C704.587 335.701 697.837 332.243 694.966 330.961" stroke="black" stroke-width="8.68697" stroke-linecap="round"/>
<path d="M718.164 385.106C714.738 380.945 708.612 376.474 705.977 374.759" stroke="black" stroke-width="8.68697" stroke-linecap="round"/>
<path d="M720.419 431.865C717.686 427.22 712.335 421.846 710.001 419.739" stroke="black" stroke-width="8.68697" stroke-linecap="round"/>
<path d="M715.332 478.402C713.359 473.386 708.915 467.241 706.939 464.796" stroke="black" stroke-width="8.68697" stroke-linecap="round"/>
<path d="M703.027 523.57C701.864 518.308 698.435 511.543 696.866 508.818" stroke="black" stroke-width="8.68697" stroke-linecap="round"/>
<path d="M683.808 566.257C683.482 560.877 681.154 553.659 680.031 550.723" stroke="black" stroke-width="8.68697" stroke-linecap="round"/>
<path d="M658.148 605.412C658.668 600.047 657.497 592.554 656.847 589.478" stroke="black" stroke-width="8.68697" stroke-linecap="round"/>
<path d="M626.679 640.071C628.031 634.854 628.047 627.27 627.886 624.13" stroke="black" stroke-width="8.68697" stroke-linecap="round"/>
<path d="M590.175 669.38C592.327 664.439 593.529 656.95 593.861 653.824" stroke="black" stroke-width="8.68697" stroke-linecap="round"/>
<path d="M549.536 692.618C552.434 688.074 554.793 680.866 555.61 677.83" stroke="black" stroke-width="8.68697" stroke-linecap="round"/>
<path d="M505.762 709.212C509.335 705.178 512.793 698.428 514.075 695.557" stroke="black" stroke-width="8.68697" stroke-linecap="round"/>
<path d="M459.93 718.755C464.091 715.329 468.562 709.203 470.277 706.568" stroke="black" stroke-width="8.68697" stroke-linecap="round"/>
<path d="M413.171 721.01C417.816 718.277 423.19 712.926 425.297 710.592" stroke="black" stroke-width="8.68697" stroke-linecap="round"/>
<path d="M366.634 715.922C371.649 713.95 377.795 709.505 380.24 707.53" stroke="black" stroke-width="8.68697" stroke-linecap="round"/>
<path d="M321.466 703.618C326.728 702.455 333.493 699.026 336.218 697.457" stroke="black" stroke-width="8.68697" stroke-linecap="round"/>
<path d="M278.779 684.399C284.159 684.073 291.376 681.745 294.313 680.621" stroke="black" stroke-width="8.68697" stroke-linecap="round"/>
<path d="M239.624 658.739C244.988 659.259 252.482 658.088 255.558 657.438" stroke="black" stroke-width="8.68697" stroke-linecap="round"/>
<path d="M204.965 627.269C210.182 628.622 217.766 628.638 220.906 628.477" stroke="black" stroke-width="8.68697" stroke-linecap="round"/>
<path d="M175.656 590.766C180.597 592.918 188.085 594.12 191.212 594.452" stroke="black" stroke-width="8.68697" stroke-linecap="round"/>
<path d="M152.418 550.127C156.962 553.025 164.17 555.384 167.206 556.201" stroke="black" stroke-width="8.68697" stroke-linecap="round"/>
<path d="M135.824 506.352C139.858 509.926 146.608 513.383 149.479 514.665" stroke="black" stroke-width="8.68697" stroke-linecap="round"/>
<path d="M126.281 460.521C129.707 464.682 135.833 469.153 138.468 470.868" stroke="black" stroke-width="8.68697" stroke-linecap="round"/>
<path d="M124.026 413.762C126.759 418.407 132.11 423.781 134.444 425.888" stroke="black" stroke-width="8.68697" stroke-linecap="round"/>
<path d="M129.113 367.225C131.086 372.241 135.531 378.386 137.506 380.831" stroke="black" stroke-width="8.68697" stroke-linecap="round"/>
<path d="M141.418 322.057C142.581 327.319 146.01 334.084 147.579 336.809" stroke="black" stroke-width="8.68697" stroke-linecap="round"/>
<path d="M160.637 279.37C160.963 284.75 163.291 291.968 164.414 294.904" stroke="black" stroke-width="8.68697" stroke-linecap="round"/>
<path d="M186.297 240.215C185.777 245.579 186.948 253.072 187.598 256.149" stroke="black" stroke-width="8.68697" stroke-linecap="round"/>
<path d="M217.766 205.556C216.414 210.773 216.398 218.357 216.559 221.497" stroke="black" stroke-width="8.68697" stroke-linecap="round"/>
<path d="M254.27 176.247C252.118 181.188 250.916 188.676 250.584 191.803" stroke="black" stroke-width="8.68697" stroke-linecap="round"/>
<path d="M294.909 153.009C292.011 157.553 289.652 164.761 288.835 167.797" stroke="black" stroke-width="8.68697" stroke-linecap="round"/>
<path d="M338.684 136.414C335.11 140.449 331.653 147.199 330.37 150.07" stroke="black" stroke-width="8.68697" stroke-linecap="round"/>
<path d="M384.515 126.872C380.354 130.298 375.883 136.424 374.168 139.059" stroke="black" stroke-width="8.68697" stroke-linecap="round"/>
<path d="M431.274 124.617C426.629 127.35 421.255 132.701 419.148 135.035" stroke="black" stroke-width="8.68697" stroke-linecap="round"/>
<path d="M477.811 129.705C472.795 131.677 466.65 136.122 464.205 138.097" stroke="black" stroke-width="8.68697" stroke-linecap="round"/>
<ellipse cx="422.223" cy="422.813" rx="301.783" ry="301.783" transform="rotate(9.00002 422.223 422.813)" stroke="black" stroke-width="17.3739"/>
</svg>
