<svg width="350" height="151" viewBox="0 0 350 151" fill="none" xmlns="http://www.w3.org/2000/svg">
<path d="M225.457 143.974H312.318C307.258 115.227 315.405 108.871 342.896 109.053V85.2503L304.746 27.0584C298.594 17.6748 288.268 11.8329 277.056 11.4066C179.37 7.69198 116.445 7.1294 10.4741 8.5066C7.25888 8.54839 5.80802 12.5553 8.27379 14.6191C74.2037 69.8012 116.534 98.3574 182.499 133.413C195.711 140.435 210.495 143.974 225.457 143.974Z" fill="#303030"/>
<path d="M312.318 143.974V150.924C314.371 150.924 316.32 150.015 317.641 148.442C318.961 146.869 319.518 144.792 319.162 142.77L312.318 143.974ZM182.499 133.413L185.76 127.276L182.499 133.413ZM8.27379 14.6191L12.7343 9.28988L12.7343 9.28988L8.27379 14.6191ZM10.4741 8.5066L10.3838 1.55762L10.4741 8.5066ZM277.056 11.4066L277.32 4.46201L277.056 11.4066ZM304.746 27.0584L310.558 23.2482V23.2482L304.746 27.0584ZM342.896 85.2503H349.845V83.1753L348.708 81.4401L342.896 85.2503ZM342.896 109.053L342.85 116.002C344.701 116.014 346.48 115.287 347.794 113.983C349.107 112.678 349.845 110.904 349.845 109.053H342.896ZM312.318 137.025H225.457V150.924H312.318V137.025ZM185.76 127.276C120.261 92.4678 78.3285 64.1911 12.7343 9.28988L3.81331 19.9484C70.0788 75.4113 112.808 104.247 179.238 139.55L185.76 127.276ZM10.5644 15.4556C116.436 14.0797 179.241 14.6417 276.791 18.3511L277.32 4.46201C179.498 0.742261 116.454 0.179123 10.3838 1.55762L10.5644 15.4556ZM298.934 30.8686L337.084 89.0605L348.708 81.4401L310.558 23.2482L298.934 30.8686ZM335.946 85.2503V109.053H349.845V85.2503H335.946ZM342.942 102.103C335.886 102.057 329.606 102.417 324.29 103.609C318.93 104.809 314.03 106.969 310.332 110.91C302.927 118.803 302.958 130.89 305.473 145.179L319.162 142.77C316.617 128.311 318.192 122.846 320.469 120.42C321.611 119.202 323.586 118.01 327.328 117.171C331.113 116.324 336.16 115.958 342.85 116.002L342.942 102.103ZM276.791 18.3511C285.753 18.6919 294.014 23.3633 298.934 30.8686L310.558 23.2482C303.175 11.9863 290.783 4.97395 277.32 4.46201L276.791 18.3511ZM12.7343 9.28988C15.3012 11.4384 13.681 15.4151 10.5644 15.4556L10.3838 1.55762C0.836737 1.68169 -3.68514 13.6723 3.81331 19.9484L12.7343 9.28988ZM225.457 137.025C211.587 137.025 197.929 133.743 185.76 127.276L179.238 139.55C193.493 147.126 209.403 150.924 225.457 150.924V137.025Z" fill="black"/>
<path d="M296.393 62.4745C285.554 58.0674 266.86 56.4192 240.23 56.9311C220.241 70.4986 253.59 69.7283 295.217 67.1787C298.288 66.9906 299.243 63.6334 296.393 62.4745Z" fill="#C4C4C4"/>
<path d="M81.0945 50.7C121.695 48.2682 146.363 46.7907 196.55 48.6443C198.344 48.7105 199.813 50.1378 199.881 51.9308C200.311 63.3297 199.482 71.0487 197.002 81.0834C195.921 85.4562 191.999 88.5047 187.497 88.6474C172.257 89.1302 160.618 89.0744 139.239 88.6108C132.553 88.4658 126.007 86.5523 120.285 83.0892C103.878 73.1586 91.8058 65.6655 79.1974 54.2836C77.8452 53.0629 78.654 50.8462 80.4724 50.7373L81.0945 50.7Z" fill="#E82127" stroke="black" stroke-width="5.21218"/>
<path d="M304.673 76.5633H317.008C315.674 58.7718 313.119 51.4926 307.626 39.9043C296.774 23.4538 288.459 19.8203 271.836 17.8394L244.038 14.3646C229.597 12.5502 225.228 19.0841 221.973 39.9043L207.972 118.857C206.477 127.289 212.896 135.06 221.459 135.178C255.939 135.652 277.517 135.607 294.596 132.334L290.426 112.527C274.343 114.431 263.907 114.401 247.718 113.099C244.01 112.8 241.222 109.597 241.397 105.881L244.038 49.8074C244.639 32.0103 251.743 29.2111 271.836 32.086C300.48 35.5775 300.756 51.3823 304.673 76.5633Z" fill="#E82127" stroke="black" stroke-width="5.21218"/>
</svg>
