<svg width="3969" height="1146" viewBox="0 0 3969 1146" fill="none" xmlns="http://www.w3.org/2000/svg">
<path d="M99.0929 1104.16C135.787 1114.3 248.277 1123.1 299.936 1126.23L992.808 1136.48L2842.44 1126.4L3550.08 1090.6C3880.44 1040.25 3922.3 1020.85 3891.13 992.753C3910.47 967.557 3920.42 951.907 3933.52 915.937V882.221C3954.93 820.601 3962.83 788.884 3958.89 744.751C3919.91 708.12 3896.91 694.626 3875.14 552.536C3870.94 525.077 3881.9 518.827 3906.42 519.689V495.706C3877.08 435.041 3873.61 401.192 3912.5 341.378C3730.97 333.235 3496.41 217.1 3300.07 156.983C2364.35 -129.514 1549.92 16.1898 953.022 456.255C599.984 456.255 336.073 554.1 247.119 603.805C105.869 650.393 30.0604 704.952 9.26961 732.933C6.48977 801.928 26.1223 846.559 26.1223 876.312C26.1223 906.066 16.8562 930.536 12.2232 939.052C21.4314 944.15 42.1064 956.535 51.1408 965.294C60.1753 974.054 70.9471 987.714 75.8118 1014.83C57.5692 1020.1 21.2576 1033.94 21.9526 1047.15C22.8213 1063.66 78.2441 1088.17 99.0929 1104.16Z" fill="#E8A643" stroke="black" stroke-width="17.3739" stroke-linecap="round" stroke-linejoin="round"/>
</svg>
