<svg width="167" height="66" viewBox="0 0 167 66" fill="none" xmlns="http://www.w3.org/2000/svg">
<path d="M48.0623 61.3418C28.4905 48.2739 17.9448 38.8839 6.48366 23.0885C3.49519 18.9699 6.06289 13.2559 11.1143 12.6415C44.0898 8.63114 81.7522 7.42888 145.009 5.52572C141.168 9.34491 136.782 13.1938 131.978 17.0029C108.972 35.2459 76.377 52.5744 48.0623 61.3418Z" fill="#3A3A3A"/>
<path d="M161.862 4.52905L145.009 5.52572M48.0623 61.3418C28.4905 48.2739 17.9448 38.8838 6.48366 23.0885C3.49519 18.9699 6.06289 13.2559 11.1143 12.6415C44.0898 8.63114 81.7522 7.42888 145.009 5.52572M48.0623 61.3418C49.7226 45.7733 52.1907 36.754 59.5353 26.279C62.3513 22.2629 67.0148 20.0352 71.9145 19.8065L131.978 17.0029M48.0623 61.3418C76.3769 52.5744 108.972 35.2459 131.978 17.0029M145.009 5.52572C141.168 9.34491 136.782 13.1938 131.978 17.0029" stroke="black" stroke-width="8.68697" stroke-linecap="round" stroke-linejoin="round"/>
<ellipse cx="67.1463" cy="37.6679" rx="4.78046" ry="9.07021" transform="rotate(24.6885 67.1463 37.6679)" fill="#747476"/>
</svg>
