<svg width="365" height="191" viewBox="0 0 365 191" fill="none" xmlns="http://www.w3.org/2000/svg">
<path d="M7.17812 158.572C19.8611 145.715 66.8055 109.125 153.119 65.6209C222.673 42.6873 309.311 4.11717 359.522 5.68088C359.522 18.0163 259.936 75.0805 242.074 85.7747C200.374 110.741 157.565 138.702 147.56 144.846C127.753 157.008 38.1037 191.061 18.2974 184.98C2.45241 180.115 4.28247 165.347 7.17812 158.572Z" fill="#696969" stroke="black" stroke-width="10.4244" stroke-linejoin="round"/>
<path d="M98.9126 99.1528L101.519 104.191C164.464 92.4688 223.31 53.2856 323.905 21.1438V12.8043C230.706 34.0146 181.498 53.0462 98.9126 99.1528Z" fill="#C4C4C4"/>
<path d="M7.17812 158.572C19.8611 145.715 66.8055 109.125 153.119 65.6209C222.673 42.6873 309.311 4.11717 359.522 5.68088C359.522 18.0163 259.936 75.0805 242.074 85.7747C200.374 110.741 157.565 138.702 147.56 144.846C127.753 157.008 38.1037 191.061 18.2974 184.98C2.45241 180.115 4.28247 165.347 7.17812 158.572Z" stroke="black" stroke-width="10.4244" stroke-linejoin="round"/>
<path d="M101.692 105.234L68.1608 138.766C90.7229 153.923 110.466 145.566 145.507 130.733L145.822 130.6C192.558 78.478 122.194 121.392 101.692 105.234Z" fill="#373737"/>
<path d="M81.1476 134.349L40.0139 144.325C33.6112 176.692 82.9274 161.873 141.651 130.252C99.7288 145.56 86.7922 147.631 86.0095 138.579C85.7878 136.014 83.6493 133.742 81.1476 134.349Z" fill="#C4C4C4"/>
<path d="M40.7093 146.584C39.7823 177.845 64.3235 164.014 144.432 132.163M324.426 20.97C236.861 46.3359 151.555 99.5002 102.908 106.102" stroke="#E4E4E4" stroke-width="7.29705" stroke-linecap="round"/>
</svg>
