<svg width="234" height="209" viewBox="0 0 234 209" fill="none" xmlns="http://www.w3.org/2000/svg">
<path d="M177.434 4.39185L183.349 10.3894L175.694 47.5408C87.6002 49.8452 67.3608 38.3873 56.1718 7.05742L177.434 4.39185Z" fill="#9C9C9C"/>
<path d="M177.434 4.39185L183.349 9.14189L175.694 38.5658C87.6002 40.3909 67.3608 31.3162 56.1718 6.50298L177.434 4.39185Z" fill="#343434"/>
<path d="M13.953 174.83C22.8137 195.505 103.776 207.841 229.911 204.019M4.22363 66.7646C29.5896 80.8036 152.25 81.7757 171.013 81.3587M171.013 81.3587L176.343 47.4795M171.013 81.3587C165.975 110.084 151.728 169.549 135.049 177.61M176.343 47.4795L181.919 12.0327C182.58 7.82997 179.365 4.02508 175.11 4.01385C138.752 3.91793 74.5854 4.28725 55.6505 6.477C56.4613 14.9323 64.2332 30.4183 81.1902 39.3137C98.1471 48.2092 151.054 49.6802 176.343 47.4795Z" stroke="black" stroke-width="6.94958" stroke-linecap="round" stroke-linejoin="round"/>
</svg>
