<svg width="3969" height="1146" viewBox="0 0 3969 1146" fill="none" xmlns="http://www.w3.org/2000/svg">
<path d="M299.936 1126.23C248.277 1123.1 135.787 1114.3 99.0929 1104.15C78.2441 1088.17 22.8213 1063.66 21.9526 1047.15C21.2576 1033.94 57.5692 1020.1 75.8118 1014.83C70.9471 987.713 60.1753 974.053 51.1408 965.294C42.1064 956.535 21.4314 944.149 12.2232 939.051C16.8562 930.535 26.1223 906.065 26.1223 876.312C26.1223 846.559 6.48977 801.928 9.26961 732.932C30.0604 704.952 105.869 650.392 247.119 603.804C336.073 554.1 599.984 456.254 953.022 456.254C1549.92 16.1893 2364.35 -129.514 3300.07 156.983C3496.41 217.1 3730.97 333.235 3912.5 341.377C3873.61 401.191 3877.08 435.04 3906.42 495.705V519.689C3881.9 518.826 3870.94 525.076 3875.14 552.536C3896.91 694.626 3919.91 708.12 3958.89 744.75C3962.83 788.884 3954.93 820.601 3933.52 882.221V915.936C3920.42 951.907 3910.47 967.556 3891.13 992.753C3922.3 1020.85 3880.44 1040.25 3550.08 1090.6M992.808 1136.48L2842.44 1126.4" stroke="black" stroke-width="17.3739" stroke-linecap="round" stroke-linejoin="round"/>
</svg>
