<svg width="3952" height="1039" viewBox="0 0 3952 1039" fill="none" xmlns="http://www.w3.org/2000/svg">
<path d="M1027.45 993.601C1027.62 995.108 1025.47 995.703 1024.85 994.313C1023.9 992.165 1024.1 988.768 1023.79 986.432C1022.34 975.484 1020.66 964.566 1018.74 953.691C1013.69 925.215 1006.96 897.02 998.196 869.455C971.392 785.151 924.408 706.559 854.433 651.22C729.176 552.163 550.889 544.333 415.047 627.603C378.558 649.97 345.973 678.575 319.046 711.84C251.289 795.542 223.562 904.376 236.981 1010.64C237.162 1012.07 235.002 1012.47 234.668 1011.06C233.923 1007.93 233.789 1004.49 233.427 1001.29C232.447 992.636 231.721 983.958 231.253 975.259C229.863 949.397 231.027 923.413 234.571 897.762C245.222 820.689 279.252 747.036 331.835 689.596C360.414 658.378 393.993 632.07 431.138 611.783C580.337 530.291 768.646 554.461 889.099 674.951C973.545 759.424 1014.04 876.963 1027.45 993.601Z" fill="black"/>
<path d="M431.619 657.228C409.193 649.342 392.805 644.341 372.055 639.579C351.225 634.798 329.799 633.013 308.445 633.875C288.965 634.662 272.524 636.107 250.061 639.159" stroke="black" stroke-width="5.21218"/>
<path d="M318.882 680.173C320.087 680.005 320.572 681.732 319.431 682.181C316.79 683.221 313.335 683.333 310.535 683.861C303.227 685.242 295.925 686.653 288.628 688.09C266.763 692.396 244.95 696.963 223.201 701.81C163.905 715.025 105.412 730.458 47.0375 747.176C45.7643 747.541 44.9735 745.753 46.1356 745.097C48.6014 743.705 52.0721 743.102 54.7929 742.199C61.8861 739.845 68.9843 737.505 76.0915 735.192C97.4647 728.238 118.924 721.53 140.563 715.431C198.935 698.977 258.834 688.543 318.882 680.173Z" fill="black"/>
<path d="M3605.32 970.031C3605.43 971.78 3602.91 972.337 3602.28 970.694C3601.03 967.409 3601.59 962.341 3601.26 958.816C3600.45 949.919 3599.4 941.042 3598.11 932.201C3594.08 904.542 3587.7 877.216 3578.84 850.701C3552.01 770.406 3501.91 698.572 3433.84 647.897C3394.99 618.971 3350.92 597.256 3304.36 583.922C3262.54 571.945 3218.75 566.637 3175.28 568.172C3140.66 569.394 3106.23 575.272 3073.25 585.862C3046.46 594.462 3020.68 606.135 2996.51 620.529C2856.97 703.628 2787.54 863.259 2789.65 1021.72C2789.67 1022.84 2787.97 1022.95 2787.84 1021.84C2787.36 1017.96 2787.68 1013.8 2787.66 1009.89C2787.62 1000.59 2787.83 991.286 2788.3 982.001C2789.73 953.476 2793.44 925.119 2799.52 897.211C2817.66 814.033 2858 734.946 2918.38 674.504C2952.13 640.721 2991.64 613.038 3035.25 593.51C3074.25 576.042 3116.23 565.622 3158.8 562.184C3196.89 559.108 3235.51 561.772 3272.95 569.296C3305.94 575.928 3338.07 586.745 3368.44 601.235C3511.75 669.61 3595.93 813.954 3605.32 970.031Z" fill="black"/>
<path d="M1110.36 435.979C1114.06 432.627 1120.15 436.418 1118.1 441.23C1116.65 444.62 1112.01 447.764 1109.56 450.616C1105.45 455.403 1102.86 460.535 1100.31 466.243C1097.88 471.679 1089.8 468.549 1091.67 462.896C1095.09 452.567 1102.39 443.212 1110.36 435.979ZM1091.38 464.222C1091.83 458.805 1099.95 458.567 1100.6 464.008C1101.4 470.798 1099.52 478.848 1099 485.679C1097.85 500.953 1096.77 516.234 1095.79 531.521C1092.37 584.765 1090.14 638.108 1090.34 691.47C1090.75 799.773 1103.93 906.472 1120.17 1013.38C1120.58 1016.05 1116.69 1017.1 1115.72 1014.56C1113.15 1007.77 1113.05 998.831 1111.88 991.645C1108.72 972.195 1105.69 952.722 1102.88 933.218C1094.54 875.435 1088.18 817.351 1085.14 759.035C1080.05 661.008 1083.17 562.003 1091.38 464.222Z" fill="black"/>
<path d="M1134.26 923.608C1131.44 923.666 1132.2 920.465 1136.28 920.342C1142.57 920.152 1148.86 919.961 1155.15 919.77C1172.37 919.247 1189.6 918.719 1206.82 918.19C1257.69 916.627 1308.56 915.041 1359.43 913.434C1512.62 908.596 1665.8 903.603 1818.95 897.873C2137.06 885.971 2454.79 870.359 2771.97 842.834C2773.13 842.733 2773.46 844.438 2772.35 844.775C2770.03 845.477 2767.06 845.317 2764.65 845.554C2758.16 846.193 2751.67 846.828 2745.19 847.459C2724.93 849.429 2704.68 851.363 2684.42 853.252C2624.1 858.877 2563.74 864.12 2503.35 868.942C2322.47 883.386 2141.29 893.931 1959.97 901.056C1684.87 911.866 1409.5 917.958 1134.26 923.608Z" fill="black"/>
<path d="M1034.02 605.798C1032.47 605.893 1031.79 603.768 1033.11 602.931C1034.47 602.067 1036.87 602.481 1038.36 602.375C1046.65 601.787 1054.94 601.198 1063.22 600.609C1085.43 599.031 1107.64 597.452 1129.85 595.88C1196.74 591.145 1263.64 586.454 1330.54 581.905C1532.06 568.203 1733.7 556.091 1935.43 545.944C2288.68 528.174 2642.3 516.483 2995.92 509.55C2997.41 509.521 2997.98 511.584 2996.68 512.33C2995.33 513.108 2993.01 512.603 2991.57 512.642C2982.76 512.878 2973.96 513.116 2965.16 513.356C2942.81 513.967 2920.47 514.592 2898.12 515.229C2829.55 517.185 2760.98 519.263 2692.42 521.471C2488.13 528.047 2283.88 535.762 2079.71 545.412C1730.94 561.896 1382.52 584.395 1034.02 605.798Z" fill="black"/>
<path d="M3894.73 306.388C3899.09 304.396 3903.26 310.027 3899.66 313.43C3896.58 316.328 3890.79 318.045 3886.98 319.889C3876.87 324.782 3866.57 329.296 3856.16 333.518C3821.35 347.634 3785.05 358.952 3748.82 368.791C3747.46 369.16 3746.62 367.259 3747.85 366.538C3752.94 363.554 3760.1 362.28 3765.69 360.312C3778.92 355.653 3792.11 350.887 3805.22 345.91C3835.87 334.275 3864.96 319.983 3894.73 306.388Z" fill="black"/>
<path d="M3426.61 498.868C3425.48 498.844 3425.4 497.133 3426.52 497.012C3430.65 496.569 3435.03 496.924 3439.18 496.879C3448.95 496.773 3458.73 496.655 3468.5 496.529C3497.58 496.153 3526.66 495.702 3555.75 495.215C3607.82 494.342 3660.01 492.309 3712.1 492.508C3717.16 492.528 3718.42 499.858 3713.5 501.371C3707.76 503.138 3692.36 501.614 3685.64 501.61C3660.03 501.595 3634.43 501.446 3608.82 501.236C3548.09 500.737 3487.33 500.141 3426.61 498.868ZM3712.05 501.571C3706.99 501.189 3705.98 493.83 3711.14 492.627C3720.19 490.513 3739.39 490.857 3748.33 490.433C3753.5 490.188 3755.68 497.402 3750.63 499.491C3747.76 500.682 3741.81 500.191 3738.12 500.366C3729.64 500.767 3720.52 502.21 3712.05 501.571ZM3753.4 496.292C3751.97 501.29 3744.39 500.717 3744.11 495.38C3743.82 489.855 3749.96 469.397 3751.34 462.081C3755.31 441.138 3756.2 420.311 3757.41 399.098C3757.73 393.615 3765.67 392.468 3767.16 397.915C3768.76 403.762 3766.2 424.522 3765.53 431.672C3763.49 453.377 3759.41 475.329 3753.4 496.292ZM3765.69 395.526C3769.33 399.117 3765.97 405.611 3760.84 403.946C3756.82 402.641 3744.85 390.824 3741.58 387.714C3737.8 384.116 3741.23 377.442 3746.44 379.22C3750.15 380.488 3762.09 391.976 3765.69 395.526ZM3747.04 379.472C3752.5 382.239 3748.81 390.768 3743.07 388.596C3737.24 386.394 3731.63 382.971 3726.04 380.224C3714.81 374.71 3703.56 369.239 3692.28 363.819C3649.88 343.436 3607.11 323.847 3563.88 305.267C3493.14 274.855 3421.22 247.471 3349.57 219.288C3344.84 217.427 3346.84 210.09 3351.87 210.954C3357.56 211.93 3363.73 215.413 3369.15 217.491C3381.09 222.074 3393.04 226.664 3404.97 231.268C3447.45 247.646 3489.87 264.199 3531.97 281.545C3604.77 311.542 3676.8 343.868 3747.04 379.472Z" fill="black"/>
<path d="M976.969 1023.96C969.197 1024.23 966.228 1013.24 973.968 1010.49C976.604 1009.56 983.221 1009.98 987.189 1009.91C996.923 1009.74 1006.66 1009.58 1016.39 1009.42C1048.81 1008.87 1081.23 1008.32 1113.65 1007.78C1216.53 1006.05 1319.41 1004.3 1422.28 1002.57C1628.82 999.09 1835.35 995.609 2041.88 992.118C2109.17 990.981 2176.46 989.842 2243.75 988.713C2265.73 988.345 2287.71 987.98 2309.69 987.602C2320.31 987.419 2331.85 985.91 2342.44 987.06C2346.37 987.487 2346.97 993.249 2342.92 994.057C2337.91 995.059 2332.02 994.349 2326.94 994.461C2315.29 994.716 2303.63 994.973 2291.98 995.227C2253.74 996.058 2215.5 996.902 2177.26 997.734C2062.47 1000.23 1947.69 1002.75 1832.91 1005.26C1642.47 1009.43 1452.03 1013.59 1261.6 1017.75C1167.34 1019.82 1069.76 1020.69 976.969 1023.96ZM2532.55 988.392C2530.82 988.393 2530.5 985.837 2532.21 985.454C2537.03 984.366 2542.8 984.981 2547.77 984.526C2560.1 983.395 2572.33 981.273 2584.32 978.186C2620.41 968.894 2654.06 950.817 2681.77 925.907C2695.17 913.863 2706.6 900.003 2718.38 886.417C2733.38 869.106 2748.38 851.795 2763.35 834.451C2811.83 778.266 2859.85 721.674 2906.12 663.644C2952.22 605.833 2996.55 546.646 3039.38 486.376C3062.14 454.34 3084.03 421.723 3106.52 389.503C3110.68 383.55 3120.32 388.143 3118.07 395.133C3116.1 401.258 3107.98 410.119 3104.11 415.65C3093.3 431.065 3082.43 446.429 3071.47 461.734C3033.87 514.249 2995.22 566.01 2955.26 616.75C2895.37 692.789 2832.23 766.123 2768.14 838.637C2752.97 855.806 2737.76 872.943 2722.55 890.081C2710.38 903.802 2698.58 917.752 2684.75 929.84C2643.15 966.181 2588.05 988.339 2532.55 988.392ZM3116.61 388.681C3121.09 393.759 3115.76 401.895 3109.31 399.096C3105.34 397.372 3083.06 370.552 3078.54 366.214C3065.45 353.651 3053.7 327.316 3046.57 310.444C3043.86 304.018 3051.36 297.593 3057.11 302.013C3059.65 303.965 3060.8 308.173 3062.24 310.997C3065.11 316.639 3078.27 347.398 3082.05 352.485C3092.09 366.005 3105.54 376.141 3116.61 388.681Z" fill="black"/>
<path d="M2154.59 375.77C2156.68 368.336 2167.96 369.154 2168.29 377.123C2168.48 381.704 2165.94 387.36 2164.79 391.805C2162.16 402.045 2152.48 440.72 2150 450.997C2142.76 480.963 2137.64 511.327 2130.87 541.372C2129.49 547.507 2120.32 547.451 2119.53 541.007C2118.92 536.068 2121.25 529.539 2122.12 524.628C2124.23 512.641 2126.41 500.667 2128.73 488.719C2134.21 460.521 2146.8 403.431 2154.59 375.77ZM2119.49 539.974C2120.01 533.577 2129.39 532.651 2130.83 539.04C2132.06 544.495 2129.03 566.898 2128.53 574.049C2126.25 606.067 2124.17 638.1 2122.42 670.152C2118.36 744.023 2117.34 817.934 2114.51 891.841C2114.4 894.779 2110.14 895.389 2109.3 892.531C2108.05 888.289 2109.25 881.978 2109.28 877.538C2109.36 866.265 2109.44 854.991 2109.54 843.718C2109.86 807.548 2110.34 771.378 2111.21 735.216C2112.77 670.233 2114.23 604.775 2119.49 539.974ZM2109.22 892.17C2108.95 888.979 2113.58 887.887 2114.43 891.099C2116.24 897.981 2115.32 908.769 2115.68 916.429C2116.51 933.847 2117.34 951.265 2118.16 968.683C2118.55 976.872 2120.04 985.812 2119.35 994C2119.19 995.944 2116.37 996.345 2115.87 994.368C2113.78 986.039 2114.64 975.843 2114.08 967.313C2112.47 942.433 2111.26 916.377 2109.22 892.17Z" fill="black"/>
<path d="M3564.72 380.114C3569.8 380.247 3570.49 387.816 3565.43 388.731C3557.74 390.125 3540.46 388.398 3531.76 388.269C3502.2 387.833 3472.65 387.518 3443.09 387.354C3354.27 386.861 3265.43 387.773 3176.67 391.052C3064.35 395.201 2952.26 403.416 2840.42 414.433C2767.86 421.58 2695.51 430.314 2623.05 438.366C2620.87 438.609 2620 435.497 2622.02 434.6C2625.27 433.161 2630.45 433.472 2633.98 433.036C2644.86 431.695 2655.73 430.366 2666.61 429.048C2698.98 425.125 2731.38 421.312 2763.78 417.658C2860.95 406.704 2958.3 397.275 3055.87 390.829C3174.16 383.014 3292.67 379.728 3411.2 379.321C3462.34 379.145 3513.59 378.774 3564.72 380.114Z" fill="black"/>
<path d="M3335.5 158.943L3303.01 200.467" stroke="black" stroke-width="8.68697"/>
<path d="M1054.13 406.348C1058.22 416.961 1086.13 417.13 1144.99 415.383" stroke="black" stroke-width="8.68697"/>
<path d="M3944.48 706.489C3947.82 703.658 3953.09 706.97 3951.47 711.24C3949.84 715.522 3941.82 719.746 3938.1 722.199C3923.95 731.527 3907.94 737.454 3891.5 741.273C3847.3 751.537 3796.11 751.556 3750.92 751.217C3749.12 751.204 3748.78 748.553 3750.55 748.139C3757.34 746.551 3765.81 747.551 3772.8 747.259C3789.56 746.559 3806.32 745.71 3823.05 744.4C3866.27 741.013 3910.37 735.363 3944.48 706.489Z" fill="black"/>
<path d="M3919.21 877.699C3922.47 874.803 3927.8 877.924 3926.33 882.235C3924.3 888.166 3907.51 895.579 3901.96 897.858C3879.08 907.257 3854.04 911.567 3829.74 915.47C3770.71 924.953 3710.73 931.147 3651.22 936.661C3649.04 936.863 3648.18 933.776 3650.21 932.878C3654.59 930.935 3673.74 929.867 3679.36 929.171C3701.46 926.435 3723.56 923.705 3745.64 920.83C3784.12 915.82 3822.91 910.919 3860.73 902.035C3880.88 897.304 3903.34 891.791 3919.21 877.699Z" fill="black"/>
<path d="M2742.97 1010.87C2743.91 1011.02 2744.05 1012.42 2743.08 1012.66C2738.24 1013.82 2732.07 1012.89 2727.15 1012.98C2715.74 1013.18 2704.33 1013.4 2692.93 1013.62C2658.8 1014.28 2624.66 1014.93 2590.53 1015.58C2487.98 1017.54 2385.44 1019.59 2282.9 1021.53C2004.11 1026.8 1725.33 1030.82 1446.51 1033.84C1356.46 1034.81 1266.41 1035.77 1176.36 1036.74C1146.84 1037.06 1117.32 1037.39 1087.8 1037.72C1078.19 1037.82 1068.58 1037.93 1058.96 1038.05C1054.66 1038.1 1049.92 1038.74 1045.63 1038.19C1043.92 1037.97 1043.67 1035.4 1045.43 1035.02C1049.93 1034.07 1055.35 1034.82 1059.91 1034.74C1070.93 1034.54 1081.95 1034.35 1092.97 1034.14C1126.03 1033.54 1159.09 1032.94 1192.15 1032.33C1290.73 1030.53 1389.32 1028.66 1487.9 1026.87C1771.92 1021.7 2055.93 1017.72 2339.97 1014.9C2430.74 1013.99 2521.51 1013.1 2612.27 1012.2C2641.79 1011.91 2671.31 1011.61 2700.83 1011.31C2710.61 1011.21 2720.38 1011.11 2730.16 1011C2734.24 1010.95 2738.91 1010.24 2742.97 1010.87Z" fill="black"/>
<path d="M442.275 510.277C437.578 511.4 434.713 504.922 438.916 502.365C444.077 499.225 452.932 498.678 458.812 497.353C474.805 493.75 490.917 490.686 507.093 488.024C559.502 479.401 612.494 474.542 665.465 471.019C824.02 460.472 983.38 461.178 1142.19 462.645C1337.57 464.449 1532.98 468.699 1728.27 474.463C1729.97 474.514 1730.03 477.094 1728.34 477.222C1724.01 477.551 1719.44 477.032 1715.1 476.937C1702.86 476.668 1690.62 476.402 1678.39 476.14C1642.94 475.38 1607.5 474.645 1572.05 473.946C1464.76 471.828 1357.46 470.004 1250.15 468.912C1100.84 467.393 951.39 466.757 802.131 471.792C681.589 475.857 559.937 482.134 442.275 510.277Z" fill="black"/>
<path d="M3460.59 730.199C3560.61 721.12 3621.97 714.358 3714.58 702.878C3735.83 700.244 3752.91 683.967 3756.37 662.832C3764.84 611.156 3769.61 574.976 3775.75 519.8" stroke="black" stroke-width="5.21218"/>
<path d="M69.1983 976.909C71.5824 988.995 68.2106 997.718 58.9476 1007.49" stroke="black" stroke-width="5.21218" stroke-linecap="round"/>
<path d="M0.203441 699.807C-0.687911 697.001 3.12633 694.952 4.81921 697.472C7.38597 701.294 8.14565 707.835 9.68964 712.235C15.4643 728.688 23.9352 742.76 33.5495 757.181C34.7205 758.937 31.9937 757.83 31.3171 756.968C30.3623 755.752 29.4142 754.531 28.4747 753.303C25.3787 749.255 22.3826 745.129 19.5951 740.863C11.387 728.299 4.74641 714.109 0.203441 699.807Z" fill="black"/>
<path d="M940.328 422.159C1010.98 425.331 1048.57 411.521 1114.07 374.902C1838.04 -100.796 2660.87 -82.1704 3507.33 219.926C3554.3 236.689 3580.59 246.002 3616.09 241.296" stroke="black" stroke-width="6.94958"/>
</svg>
