<svg width="1719" height="178" viewBox="0 0 1719 178" fill="none" xmlns="http://www.w3.org/2000/svg">
<path fill-rule="evenodd" clip-rule="evenodd" d="M1023.88 33.8792L1003.2 2.95357L878.804 0L859.345 29.0145L1023.88 33.8792ZM1686.17 148.721L1718.66 123.702L1576.54 85.8273L1529.63 110.151L1686.17 148.721ZM319.001 67.0698C314.979 64.959 311.608 63.1901 309.112 62.1987C185.383 88.9222 117.68 107.781 0.203563 148.895C-0.64895 172.379 14.3964 182.466 66.7458 174.608C158.037 144.109 326.127 95.8302 372.881 83.4174C376.525 83.1202 380.131 82.3944 383.646 81.1363C387.855 79.6302 383.494 80.5998 372.881 83.4174C353.211 85.0223 332.459 74.1325 319.001 67.0698Z" fill="#3A3A3A"/>
</svg>
