<svg width="2258" height="422" viewBox="0 0 2258 422" fill="none" xmlns="http://www.w3.org/2000/svg">
<path d="M1213.05 14.6159C707.376 29.3187 342.388 166.989 82.9946 383.816C749.111 364.357 1173.53 348.616 1866.48 286.005C2057.67 268.729 2128.56 235.864 2178.12 185.753C1916.09 81.8749 1543.56 5.00583 1213.05 14.6159Z" fill="#3A3A3A"/>
<path d="M82.9946 383.816L81.3232 381.817C80.4712 382.529 80.1641 383.703 80.5581 384.741C80.9521 385.779 81.9607 386.454 83.0707 386.421L82.9946 383.816ZM1213.05 14.6159L1213.12 17.2209L1213.05 14.6159ZM2178.12 185.753L2179.97 187.586C2180.59 186.964 2180.85 186.075 2180.67 185.218C2180.49 184.362 2179.89 183.653 2179.08 183.331L2178.12 185.753ZM1866.48 286.005L1866.71 288.6L1866.48 286.005ZM84.666 385.816C343.514 169.444 707.898 31.9107 1213.12 17.2209L1212.97 12.0109C706.854 26.7267 341.261 164.535 81.3232 381.817L84.666 385.816ZM1213.12 17.2209C1543.25 7.62204 1915.43 84.416 2177.16 188.176L2179.08 183.331C1916.76 79.3339 1543.87 2.38962 1212.97 12.0109L1213.12 17.2209ZM2176.26 183.921C2127.37 233.357 2057.27 266.149 1866.24 283.409L1866.71 288.6C2058.07 271.31 2129.74 238.371 2179.97 187.586L2176.26 183.921ZM1866.24 283.409C1173.37 346.014 749.015 361.753 82.9185 381.211L83.0707 386.421C749.208 366.962 1173.69 351.219 1866.71 288.6L1866.24 283.409Z" fill="black"/>
<path d="M1069.14 83.5941C1027.4 179.325 1008.67 231.839 977.927 324.84C744.803 336.906 614.107 343.108 381.133 345.246L360.631 283.865C560.217 161.915 695.204 106.639 1069.14 83.5941Z" fill="#747476"/>
<mask id="path-4-outside-1_404_1906" maskUnits="userSpaceOnUse" x="0.368652" y="0.633911" width="2258" height="422" fill="black">
<rect fill="white" x="0.368652" y="0.633911" width="2258" height="422"/>
<path fill-rule="evenodd" clip-rule="evenodd" d="M2243.62 189.575C2190.97 245.651 2111.87 278.335 1908.82 298.51C1212.36 367.711 771.236 382.529 135.444 403.887C95.8757 405.216 55.5534 406.571 14.3687 407.966C651.992 -73.8138 1469.61 -70.5126 2243.62 189.575ZM2178.81 193.051C2129.25 243.161 2057.67 268.73 1866.48 286.005C1173.53 348.617 749.113 364.358 82.9965 383.817C704.983 -79.3727 1528.51 -38.7176 2178.81 193.051Z"/>
</mask>
<path fill-rule="evenodd" clip-rule="evenodd" d="M2243.62 189.575C2190.97 245.651 2111.87 278.335 1908.82 298.51C1212.36 367.711 771.236 382.529 135.444 403.887C95.8757 405.216 55.5534 406.571 14.3687 407.966C651.992 -73.8138 1469.61 -70.5126 2243.62 189.575ZM2178.81 193.051C2129.25 243.161 2057.67 268.73 1866.48 286.005C1173.53 348.617 749.113 364.358 82.9965 383.817C704.983 -79.3727 1528.51 -38.7176 2178.81 193.051Z" fill="#3A3A3A"/>
<path d="M1908.82 298.51L1910.2 312.341L1908.82 298.51ZM2243.62 189.575L2253.75 199.088C2256.99 195.638 2258.25 190.775 2257.1 186.185C2255.94 181.595 2252.53 177.908 2248.05 176.4L2243.62 189.575ZM135.444 403.887L135.911 417.779L135.911 417.779L135.444 403.887ZM14.3687 407.966L5.98957 396.876C1.15443 400.529 -0.756317 406.894 1.26728 412.607C3.29088 418.319 8.78231 422.062 14.839 421.857L14.3687 407.966ZM1866.48 286.005L1867.73 299.848L1867.73 299.848L1866.48 286.005ZM2178.81 193.051L2188.7 202.824C2192.04 199.445 2193.42 194.593 2192.37 189.959C2191.31 185.326 2187.96 181.554 2183.48 179.958L2178.81 193.051ZM82.9965 383.817L74.6949 372.669C69.8296 376.292 67.876 382.652 69.8684 388.382C71.8607 394.111 77.3388 397.887 83.4023 397.71L82.9965 383.817ZM1910.2 312.341C2113.64 292.127 2197.37 259.146 2253.75 199.088L2233.49 180.062C2184.58 232.156 2110.1 264.543 1907.45 284.679L1910.2 312.341ZM135.911 417.779C771.741 396.419 1213.25 381.59 1910.2 312.341L1907.45 284.679C1211.47 353.832 770.732 368.639 134.977 389.996L135.911 417.779ZM14.839 421.857C56.0216 420.462 96.342 419.108 135.911 417.779L134.977 389.996C95.4093 391.325 55.0852 392.68 13.8983 394.074L14.839 421.857ZM2248.05 176.4C1471.65 -84.4913 648.663 -88.7192 5.98957 396.876L22.7477 419.055C655.321 -58.9083 1467.57 -56.5339 2239.19 202.75L2248.05 176.4ZM1867.73 299.848C2058.89 282.575 2135.26 256.859 2188.7 202.824L2168.93 183.277C2123.25 229.464 2056.45 254.884 1865.23 272.162L1867.73 299.848ZM83.4023 397.71C749.627 378.248 1174.37 362.497 1867.73 299.848L1865.23 272.162C1172.7 334.737 748.599 350.468 82.5906 369.923L83.4023 397.71ZM2183.48 179.958C1530.9 -52.6202 701.899 -94.4055 74.6949 372.669L91.2981 394.964C708.068 -64.3399 1526.11 -24.8149 2174.15 206.143L2183.48 179.958Z" fill="black" mask="url(#path-4-outside-1_404_1906)"/>
<path d="M1761.32 133.565C1752.41 194.333 1744.27 224.776 1724.47 272.977C1532.18 292.731 1421.45 301.616 1210.57 307.371C1212.87 260.056 1210.02 238.912 1188.67 222.388L1222.56 76.2971C1431.77 82.6714 1549.39 90.6331 1761.32 133.565Z" fill="#747476"/>
<ellipse opacity="0.2" cx="714.676" cy="236.608" rx="156.441" ry="14.6506" transform="rotate(-34.7645 714.676 236.608)" fill="white"/>
<ellipse opacity="0.2" cx="857.49" cy="217.844" rx="156.441" ry="14.6506" transform="rotate(-34.7645 857.49 217.844)" fill="white"/>
<path d="M1119.52 30.7773C1069.69 151.349 1046.59 206.912 1001.38 345.246" stroke="black" stroke-width="8.68697"/>
<path d="M1203.27 26.7814C1173.2 154.249 1160.14 214.185 1135.51 340.381" stroke="black" stroke-width="8.68697"/>
<path d="M1877.55 107.918L1844.89 280.788" stroke="black" stroke-width="8.68697"/>
<ellipse cx="1139.01" cy="95.7457" rx="14.2466" ry="24.1498" transform="rotate(48.0068 1139.01 95.7457)" fill="#747476"/>
</svg>
