<svg width="70" height="70" viewBox="0 0 70 70" fill="none" xmlns="http://www.w3.org/2000/svg">
<rect width="70" height="70" rx="15" fill="#3056D3"/>
<path d="M34.5 25.875C25.2031 25.875 17.6562 34.0781 17.6562 44.1406C17.6562 44.6875 18.0937 45.125 18.6406 45.125H50.3594C50.9062 45.125 51.3437 44.6875 51.3437 44.1406C51.3437 34.0781 43.7969 25.875 34.5 25.875ZM36.4687 43.2109L34.9922 38.5078C34.8281 38.0156 34.1719 38.0156 34.0078 38.5078L32.5312 43.2109H19.625C20.0625 34.625 26.5703 27.7891 34.5 27.7891C42.4297 27.7891 48.9375 34.625 49.375 43.2109H36.4687V43.2109Z" fill="white"/>
<path d="M34.5 31.7812C33.9531 31.7812 33.5156 32.2187 33.5156 32.7656V34.1875C33.5156 34.7344 33.9531 35.1719 34.5 35.1719C35.0469 35.1719 35.4844 34.7344 35.4844 34.1875V32.7656C35.4844 32.2187 35.0469 31.7812 34.5 31.7812Z" fill="white"/>
<path d="M42.8672 35.8828L41.9922 36.8125C41.6094 37.1953 41.6094 37.7969 41.9922 38.1797C42.1563 38.3438 42.4297 38.4531 42.6484 38.4531C42.9219 38.4531 43.1406 38.3438 43.3594 38.1797L44.2344 37.25C44.6172 36.8672 44.6172 36.2656 44.2344 35.8828C43.8516 35.5 43.25 35.5 42.8672 35.8828Z" fill="white"/>
<path d="M26.1328 35.8828C25.8047 35.5 25.1484 35.4453 24.7656 35.8281C24.3828 36.1562 24.3281 36.8125 24.7109 37.1953L25.5312 38.125C25.6953 38.3437 25.9687 38.4531 26.2422 38.4531C26.4609 38.4531 26.6797 38.3984 26.8984 38.2344C27.2812 37.9062 27.3359 37.25 26.9531 36.8672L26.1328 35.8828Z" fill="white"/>
</svg>
