<svg width="70" height="70" viewBox="0 0 70 70" fill="none" xmlns="http://www.w3.org/2000/svg">
<rect width="70" height="70" rx="15" fill="#3056D3"/>
<path d="M44.1124 28.2981L44.1125 28.2982L44.1568 28.3405C45.2959 29.428 46.4434 30.5234 48.0611 30.9033C50.1679 31.3988 52.0817 30.955 53.7714 29.6182C53.0885 31.0739 52.1576 32.1881 50.9872 32.9811C49.511 33.9813 47.6101 34.5 45.2502 34.5C42.9127 34.5 41.2336 33.9909 39.9139 33.2765C38.584 32.5567 37.597 31.6182 36.6374 30.7026C36.6374 30.7026 36.6373 30.7025 36.6373 30.7025L36.595 30.662C35.4552 29.5732 34.3073 28.4767 32.6893 28.0967C30.5824 27.6017 28.6685 28.0458 26.9784 29.3829C27.6614 27.9267 28.5924 26.8122 29.7629 26.019C31.2391 25.0187 33.14 24.5 35.5004 24.5C37.8379 24.5 39.5168 25.0089 40.8363 25.7233C42.166 26.4431 43.1529 27.3819 44.1124 28.2981ZM38.3105 41.904L38.3107 41.904C40.4178 42.399 42.3318 41.9549 44.022 40.6175C43.3391 42.0737 42.4081 43.1881 41.2376 43.9812C39.7614 44.9814 37.8605 45.5 35.5004 45.5C33.1625 45.5 31.4834 44.9909 30.1638 44.2766C28.834 43.5567 27.8472 42.6182 26.8876 41.7026C26.8876 41.7026 26.8875 41.7025 26.8875 41.7025L26.8452 41.6621C25.7053 40.5732 24.5574 39.4767 22.9387 39.0967C20.8321 38.6017 18.9182 39.0459 17.2282 40.3832C17.911 38.9269 18.8421 37.8123 20.0126 37.0191C21.4888 36.0187 23.3897 35.5 25.7498 35.5C28.0872 35.5 29.7663 36.0092 31.0861 36.7238C32.416 37.4439 33.4031 38.3826 34.3627 39.2982C34.3627 39.2982 34.3627 39.2982 34.3627 39.2983L34.407 39.3405C35.5461 40.428 36.6936 41.5234 38.3105 41.904Z" stroke="white"/>
</svg>
