<svg width="70" height="70" viewBox="0 0 70 70" fill="none" xmlns="http://www.w3.org/2000/svg">
<rect width="70" height="70" rx="15" fill="#3056D3"/>
<path d="M47.5313 39.656L46.6563 39.1638L47.6953 38.5623C48.7344 37.906 49.3359 36.8123 49.2813 35.6091C49.2266 34.406 48.625 33.3123 47.5313 32.7107L45.8906 31.781L47.6406 30.6873C48.6797 30.031 49.2812 28.9373 49.2266 27.7341C49.1719 26.531 48.5703 25.4373 47.4766 24.8357L37.25 19.0935C36.2109 18.4919 34.9531 18.5466 33.9141 19.0935L23.4141 25.2185C22.375 25.8201 21.7188 26.9138 21.7188 28.1169C21.7188 29.3201 22.375 30.4138 23.4141 31.0154L25.1094 31.9998L23.4141 32.9841C22.375 33.5857 21.7188 34.6794 21.7188 35.8826C21.7188 37.0857 22.3203 38.1794 23.4141 38.781L24.3984 39.3279L23.4687 39.8748C22.4297 40.4763 21.7734 41.5701 21.7734 42.7732C21.7734 43.9763 22.375 45.0701 23.4687 45.6716L33.9141 51.6873C34.4609 52.0154 35.0078 52.1248 35.6094 52.1248C36.2109 52.1248 36.8125 51.9607 37.3594 51.6326L47.6953 45.2888C48.7344 44.6326 49.3359 43.5388 49.2813 42.3357C49.2266 41.2966 48.625 40.2029 47.5313 39.656ZM23.6328 28.1169C23.6328 27.5701 23.9063 27.1326 24.3438 26.8591L34.8438 20.7888C35.0625 20.6794 35.3359 20.5701 35.5547 20.5701C35.7734 20.5701 36.0469 20.6248 36.2656 20.7341L46.5469 26.4763C46.9844 26.7498 47.2578 27.1873 47.3125 27.7341C47.3125 28.281 47.0391 28.7185 46.6016 28.9919L36.3203 35.3904C35.8828 35.6638 35.2813 35.6638 34.8438 35.3904L24.3984 29.3748C23.9062 29.156 23.6328 28.6638 23.6328 28.1169ZM23.6328 35.9373C23.6328 35.3904 23.9063 34.9529 24.3438 34.6794L27.0234 33.1482L33.8594 37.0857C34.4063 37.4138 34.9531 37.5232 35.5547 37.5232C36.1562 37.5232 36.7578 37.3591 37.3047 37.031L44.0312 32.8748L46.6016 34.2966C47.0391 34.5701 47.3125 35.0076 47.3672 35.5544C47.3672 36.1013 47.0938 36.5388 46.6563 36.8123L36.3203 43.2654C35.8828 43.5388 35.2813 43.5388 34.8438 43.2654L24.3984 37.2498C23.9062 36.9763 23.6328 36.4841 23.6328 35.9373ZM46.6563 43.8123L36.3203 50.2107C35.8828 50.4841 35.2813 50.4841 34.8438 50.2107L24.3984 44.1951C23.9609 43.9216 23.6875 43.4841 23.6875 42.9373C23.6875 42.3904 23.9609 41.9529 24.3984 41.6794L26.3125 40.5857L33.8594 44.9607C34.4063 45.2888 34.9531 45.3982 35.5547 45.3982C36.1562 45.3982 36.7578 45.2341 37.3047 44.906L44.7969 40.2576L46.6563 41.2966C47.0938 41.5701 47.3672 42.0076 47.4219 42.5544C47.3672 43.0466 47.0938 43.5388 46.6563 43.8123Z" fill="white"/>
</svg>
