<svg width="70" height="70" viewBox="0 0 70 70" fill="none" xmlns="http://www.w3.org/2000/svg">
<rect width="70" height="70" rx="15" fill="#3056D3"/>
<path d="M37.6663 18.2955C28.137 16.5318 19.0642 22.8469 17.2952 32.348C16.4393 36.9563 17.4664 41.5646 20.0913 45.4333C22.7732 49.302 26.7675 51.8621 31.3325 52.7155C32.4166 52.8862 33.4438 53 34.4709 53C42.7448 53 50.1629 47.0832 51.7036 38.6062C53.4725 29.1051 47.1386 20.0023 37.6663 18.2955ZM49.8205 38.2648C49.7064 38.8337 49.5923 39.4595 49.4211 39.9716L35.555 34.7943V20.0023C36.1257 20.0591 36.7533 20.116 37.324 20.2298C45.7121 21.7659 51.3041 29.8447 49.8205 38.2648ZM33.5008 20.0023V34.453H19.0642C19.1212 33.8841 19.1783 33.2582 19.2924 32.6893C20.5478 25.5777 26.5963 20.4574 33.5008 20.0023ZM31.7319 50.7243C27.6805 49.9847 24.1427 47.709 21.7461 44.2954C20.0913 41.9628 19.1783 39.232 19.0071 36.5011H34.2997L48.6222 41.849C45.8262 48.1641 38.8646 52.0328 31.7319 50.7243Z" fill="white"/>
</svg>
