<svg width="70" height="70" viewBox="0 0 70 70" fill="none" xmlns="http://www.w3.org/2000/svg">
<rect width="70" height="70" rx="15" fill="#3056D3"/>
<path d="M22.0469 33.5859C22.2109 33.5859 22.375 33.5859 22.4844 33.5313L28.5547 31.3984C29.0469 31.2344 29.3203 30.6875 29.1562 30.1953C28.9922 29.7031 28.4453 29.4297 27.9531 29.5938L24.2891 30.9063C26.0937 25.9297 30.8516 22.5391 36.375 22.5391C42.2266 22.5391 47.3672 26.4219 48.7891 32.0547C48.8984 32.5469 49.4453 32.875 49.9375 32.7656C50.4297 32.6563 50.7578 32.1094 50.6484 31.6172C49.0078 25.1641 43.1016 20.6797 36.375 20.6797C29.8125 20.6797 24.125 24.8906 22.2656 31.0156L20.5703 26.2578C20.4062 25.7656 19.8594 25.4922 19.3672 25.6563C18.875 25.8203 18.6016 26.3672 18.7656 26.8594L20.8437 32.8203C21.0078 33.2578 21.5547 33.5859 22.0469 33.5859Z" fill="white"/>
<path d="M52.2344 45.2891L49.9922 39.3828C49.8828 39.0547 49.6094 38.7813 49.2812 38.6719C48.9531 38.5625 48.625 38.5078 48.2969 38.6719L42.2812 40.9688C41.7891 41.1328 41.5156 41.7344 41.7344 42.2266C41.8984 42.7188 42.5 42.9922 42.9922 42.7735L46.7109 41.3516C44.6328 45.6719 40.2031 48.5157 35.1719 48.5157C29.6484 48.5157 24.7812 45.0703 23.0859 39.9297C22.8672 39.4375 22.3203 39.1641 21.8281 39.3282C21.3359 39.4922 21.0625 40.0391 21.2266 40.5313C23.1953 46.4375 28.7734 50.4297 35.1172 50.4297C41.1328 50.4297 46.4922 46.875 48.6797 41.461L50.4297 46C50.5937 46.3828 50.9219 46.6016 51.3047 46.6016C51.4141 46.6016 51.5234 46.6016 51.6328 46.5469C52.1797 46.3282 52.4531 45.7813 52.2344 45.2891Z" fill="white"/>
</svg>
