<svg width="70" height="70" viewBox="0 0 70 70" fill="none" xmlns="http://www.w3.org/2000/svg">
<rect width="70" height="70" rx="15" fill="#3056D3"/>
<path d="M28.7734 32.3281H21.8281C20.0781 32.3281 18.6562 30.9063 18.6562 29.1562V22.2109C18.6562 20.4609 20.0781 19.0391 21.8281 19.0391H28.7734C30.5234 19.0391 31.9453 20.4609 31.9453 22.2109V29.1562C31.9453 30.9063 30.5234 32.3281 28.7734 32.3281ZM21.8281 20.9531C21.1719 20.9531 20.5703 21.5 20.5703 22.2109V29.1562C20.5703 29.8125 21.1172 30.4141 21.8281 30.4141H28.7734C29.4297 30.4141 30.0313 29.8672 30.0313 29.1562V22.2109C30.0313 21.5547 29.4844 20.9531 28.7734 20.9531H21.8281Z" fill="white"/>
<path d="M49.1719 32.3281H42.2266C40.4766 32.3281 39.0547 30.9063 39.0547 29.1562V22.2109C39.0547 20.4609 40.4766 19.0391 42.2266 19.0391H49.1719C50.9219 19.0391 52.3437 20.4609 52.3437 22.2109V29.1562C52.3437 30.9063 50.9219 32.3281 49.1719 32.3281ZM42.2266 20.9531C41.5703 20.9531 40.9688 21.5 40.9688 22.2109V29.1562C40.9688 29.8125 41.5156 30.4141 42.2266 30.4141H49.1719C49.8281 30.4141 50.4297 29.8672 50.4297 29.1562V22.2109C50.4297 21.5547 49.8828 20.9531 49.1719 20.9531H42.2266Z" fill="white"/>
<path d="M28.7734 51.9609H21.8281C20.0781 51.9609 18.6562 50.5391 18.6562 48.7891V41.8438C18.6562 40.0938 20.0781 38.6719 21.8281 38.6719H28.7734C30.5234 38.6719 31.9453 40.0938 31.9453 41.8438V48.7891C31.9453 50.5391 30.5234 51.9609 28.7734 51.9609ZM21.8281 40.5859C21.1719 40.5859 20.5703 41.1328 20.5703 41.8438V48.7891C20.5703 49.4453 21.1172 50.0469 21.8281 50.0469H28.7734C29.4297 50.0469 30.0313 49.5 30.0313 48.7891V41.8438C30.0313 41.1875 29.4844 40.5859 28.7734 40.5859H21.8281V40.5859Z" fill="white"/>
<path d="M49.1719 51.9609H42.2266C40.4766 51.9609 39.0547 50.5391 39.0547 48.7891V41.8438C39.0547 40.0938 40.4766 38.6719 42.2266 38.6719H49.1719C50.9219 38.6719 52.3437 40.0938 52.3437 41.8438V48.7891C52.3437 50.5391 50.9219 51.9609 49.1719 51.9609ZM42.2266 40.5859C41.5703 40.5859 40.9688 41.1328 40.9688 41.8438V48.7891C40.9688 49.4453 41.5156 50.0469 42.2266 50.0469H49.1719C49.8281 50.0469 50.4297 49.5 50.4297 48.7891V41.8438C50.4297 41.1875 49.8828 40.5859 49.1719 40.5859H42.2266V40.5859Z" fill="white"/>
</svg>
